<svg width="128" height="128" viewBox="0 0 128 128" fill="none" xmlns="http://www.w3.org/2000/svg">
  <rect width="128" height="128" rx="32" fill="#8B4D1F"/>
  <path d="M64 20C78 34 84 49 80 65C76 81 64 91 64 91C64 91 52 81 48 65C44 49 50 34 64 20Z" fill="#FFF7ED"/>
  <path d="M36 44C52 48 64 58 68 74C72 88 66 102 66 102C66 102 48 100 36 86C24 72 24 56 36 44Z" fill="#FED7AA"/>
  <path d="M92 44C76 48 64 58 60 74C56 88 62 102 62 102C62 102 80 100 92 86C104 72 104 56 92 44Z" fill="#FDBA74"/>
</svg>
